G04 #@! TF.GenerationSoftware,KiCad,Pcbnew,5.0.2+dfsg1-1~bpo9+1*
G04 #@! TF.CreationDate,2021-05-18T17:20:13+01:00*
G04 #@! TF.ProjectId,ds_phat_usb_c,64735f70-6861-4745-9f75-73625f632e6b,rev?*
G04 #@! TF.SameCoordinates,Original*
G04 #@! TF.FileFunction,Soldermask,Bot*
G04 #@! TF.FilePolarity,Negative*
%FSLAX46Y46*%
G04 Gerber Fmt 4.6, Leading zero omitted, Abs format (unit mm)*
G04 Created by KiCad (PCBNEW 5.0.2+dfsg1-1~bpo9+1) date Tue 18 May 2021 17:20:13 BST*
%MOMM*%
%LPD*%
G01*
G04 APERTURE LIST*
%ADD10C,0.100000*%
G04 APERTURE END LIST*
D10*
G36*
X151308014Y-75406973D02*
X151411878Y-75438479D01*
X151507600Y-75489644D01*
X151591501Y-75558499D01*
X151660356Y-75642400D01*
X151711521Y-75738121D01*
X151743027Y-75841985D01*
X151751000Y-75922933D01*
X151751000Y-76477067D01*
X151743027Y-76558015D01*
X151711521Y-76661879D01*
X151660356Y-76757600D01*
X151591501Y-76841501D01*
X151507600Y-76910356D01*
X151411879Y-76961521D01*
X151308015Y-76993027D01*
X151200000Y-77003666D01*
X151091986Y-76993027D01*
X150988122Y-76961521D01*
X150892401Y-76910356D01*
X150808500Y-76841501D01*
X150739645Y-76757600D01*
X150688480Y-76661879D01*
X150656973Y-76558015D01*
X150649000Y-76477067D01*
X150649000Y-75922934D01*
X150656973Y-75841986D01*
X150688479Y-75738122D01*
X150739644Y-75642400D01*
X150808499Y-75558499D01*
X150892400Y-75489644D01*
X150988121Y-75438479D01*
X151091985Y-75406973D01*
X151200000Y-75396334D01*
X151308014Y-75406973D01*
X151308014Y-75406973D01*
G37*
G36*
X144805614Y-75401893D02*
X144909478Y-75433399D01*
X145005200Y-75484564D01*
X145089101Y-75553419D01*
X145157956Y-75637320D01*
X145209121Y-75733041D01*
X145240627Y-75836905D01*
X145248600Y-75917853D01*
X145248600Y-76471987D01*
X145240627Y-76552935D01*
X145209121Y-76656799D01*
X145157956Y-76752520D01*
X145089101Y-76836421D01*
X145005200Y-76905276D01*
X144909479Y-76956441D01*
X144805615Y-76987947D01*
X144697600Y-76998586D01*
X144589586Y-76987947D01*
X144485722Y-76956441D01*
X144390001Y-76905276D01*
X144306100Y-76836421D01*
X144237245Y-76752520D01*
X144186080Y-76656799D01*
X144154573Y-76552935D01*
X144146600Y-76471987D01*
X144146600Y-75917854D01*
X144154573Y-75836906D01*
X144186079Y-75733042D01*
X144237244Y-75637320D01*
X144306099Y-75553419D01*
X144390000Y-75484564D01*
X144485721Y-75433399D01*
X144589585Y-75401893D01*
X144697600Y-75391254D01*
X144805614Y-75401893D01*
X144805614Y-75401893D01*
G37*
G36*
X153051643Y-73339781D02*
X153197415Y-73400162D01*
X153328611Y-73487824D01*
X153440176Y-73599389D01*
X153527838Y-73730585D01*
X153588219Y-73876357D01*
X153619000Y-74031107D01*
X153619000Y-74188893D01*
X153588219Y-74343643D01*
X153527838Y-74489415D01*
X153440176Y-74620611D01*
X153328611Y-74732176D01*
X153197415Y-74819838D01*
X153051643Y-74880219D01*
X152896893Y-74911000D01*
X152739107Y-74911000D01*
X152584357Y-74880219D01*
X152438585Y-74819838D01*
X152307389Y-74732176D01*
X152195824Y-74620611D01*
X152108162Y-74489415D01*
X152047781Y-74343643D01*
X152017000Y-74188893D01*
X152017000Y-74031107D01*
X152047781Y-73876357D01*
X152108162Y-73730585D01*
X152195824Y-73599389D01*
X152307389Y-73487824D01*
X152438585Y-73400162D01*
X152584357Y-73339781D01*
X152739107Y-73309000D01*
X152896893Y-73309000D01*
X153051643Y-73339781D01*
X153051643Y-73339781D01*
G37*
G36*
X144415643Y-73339781D02*
X144561415Y-73400162D01*
X144692611Y-73487824D01*
X144804176Y-73599389D01*
X144891838Y-73730585D01*
X144952219Y-73876357D01*
X144983000Y-74031107D01*
X144983000Y-74188893D01*
X144952219Y-74343643D01*
X144891838Y-74489415D01*
X144804176Y-74620611D01*
X144692611Y-74732176D01*
X144561415Y-74819838D01*
X144415643Y-74880219D01*
X144260893Y-74911000D01*
X144103107Y-74911000D01*
X143948357Y-74880219D01*
X143802585Y-74819838D01*
X143671389Y-74732176D01*
X143559824Y-74620611D01*
X143472162Y-74489415D01*
X143411781Y-74343643D01*
X143381000Y-74188893D01*
X143381000Y-74031107D01*
X143411781Y-73876357D01*
X143472162Y-73730585D01*
X143559824Y-73599389D01*
X143671389Y-73487824D01*
X143802585Y-73400162D01*
X143948357Y-73339781D01*
X144103107Y-73309000D01*
X144260893Y-73309000D01*
X144415643Y-73339781D01*
X144415643Y-73339781D01*
G37*
G36*
X153807655Y-71542140D02*
X153871418Y-71548420D01*
X153953227Y-71573237D01*
X153994133Y-71585645D01*
X154094291Y-71639181D01*
X154107226Y-71646095D01*
X154206353Y-71727447D01*
X154287705Y-71826574D01*
X154287706Y-71826576D01*
X154348155Y-71939667D01*
X154348155Y-71939668D01*
X154385380Y-72062382D01*
X154397949Y-72190000D01*
X154385380Y-72317618D01*
X154360563Y-72399427D01*
X154348155Y-72440333D01*
X154294619Y-72540491D01*
X154287705Y-72553426D01*
X154206353Y-72652553D01*
X154107226Y-72733905D01*
X154107224Y-72733906D01*
X153994133Y-72794355D01*
X153953227Y-72806763D01*
X153871418Y-72831580D01*
X153807655Y-72837860D01*
X153775774Y-72841000D01*
X153211826Y-72841000D01*
X153179945Y-72837860D01*
X153116182Y-72831580D01*
X153034373Y-72806763D01*
X152993467Y-72794355D01*
X152880376Y-72733906D01*
X152880374Y-72733905D01*
X152781247Y-72652553D01*
X152699895Y-72553426D01*
X152692981Y-72540491D01*
X152639445Y-72440333D01*
X152627037Y-72399427D01*
X152602220Y-72317618D01*
X152589651Y-72190000D01*
X152602220Y-72062382D01*
X152639445Y-71939668D01*
X152639445Y-71939667D01*
X152699894Y-71826576D01*
X152699895Y-71826574D01*
X152781247Y-71727447D01*
X152880374Y-71646095D01*
X152893309Y-71639181D01*
X152993467Y-71585645D01*
X153034373Y-71573237D01*
X153116182Y-71548420D01*
X153179945Y-71542140D01*
X153211826Y-71539000D01*
X153775774Y-71539000D01*
X153807655Y-71542140D01*
X153807655Y-71542140D01*
G37*
G36*
X143800055Y-71542140D02*
X143863818Y-71548420D01*
X143945627Y-71573237D01*
X143986533Y-71585645D01*
X144086691Y-71639181D01*
X144099626Y-71646095D01*
X144198753Y-71727447D01*
X144280105Y-71826574D01*
X144280106Y-71826576D01*
X144340555Y-71939667D01*
X144340555Y-71939668D01*
X144377780Y-72062382D01*
X144390349Y-72190000D01*
X144377780Y-72317618D01*
X144352963Y-72399427D01*
X144340555Y-72440333D01*
X144287019Y-72540491D01*
X144280105Y-72553426D01*
X144198753Y-72652553D01*
X144099626Y-72733905D01*
X144099624Y-72733906D01*
X143986533Y-72794355D01*
X143945627Y-72806763D01*
X143863818Y-72831580D01*
X143800055Y-72837860D01*
X143768174Y-72841000D01*
X143204226Y-72841000D01*
X143172345Y-72837860D01*
X143108582Y-72831580D01*
X143026773Y-72806763D01*
X142985867Y-72794355D01*
X142872776Y-72733906D01*
X142872774Y-72733905D01*
X142773647Y-72652553D01*
X142692295Y-72553426D01*
X142685381Y-72540491D01*
X142631845Y-72440333D01*
X142619437Y-72399427D01*
X142594620Y-72317618D01*
X142582051Y-72190000D01*
X142594620Y-72062382D01*
X142631845Y-71939668D01*
X142631845Y-71939667D01*
X142692294Y-71826576D01*
X142692295Y-71826574D01*
X142773647Y-71727447D01*
X142872774Y-71646095D01*
X142885709Y-71639181D01*
X142985867Y-71585645D01*
X143026773Y-71573237D01*
X143108582Y-71548420D01*
X143172345Y-71542140D01*
X143204226Y-71539000D01*
X143768174Y-71539000D01*
X143800055Y-71542140D01*
X143800055Y-71542140D01*
G37*
G36*
X153051643Y-69542481D02*
X153197415Y-69602862D01*
X153328611Y-69690524D01*
X153440176Y-69802089D01*
X153527838Y-69933285D01*
X153588219Y-70079057D01*
X153619000Y-70233807D01*
X153619000Y-70391593D01*
X153588219Y-70546343D01*
X153527838Y-70692115D01*
X153440176Y-70823311D01*
X153328611Y-70934876D01*
X153197415Y-71022538D01*
X153051643Y-71082919D01*
X152896893Y-71113700D01*
X152739107Y-71113700D01*
X152584357Y-71082919D01*
X152438585Y-71022538D01*
X152307389Y-70934876D01*
X152195824Y-70823311D01*
X152108162Y-70692115D01*
X152047781Y-70546343D01*
X152017000Y-70391593D01*
X152017000Y-70233807D01*
X152047781Y-70079057D01*
X152108162Y-69933285D01*
X152195824Y-69802089D01*
X152307389Y-69690524D01*
X152438585Y-69602862D01*
X152584357Y-69542481D01*
X152739107Y-69511700D01*
X152896893Y-69511700D01*
X153051643Y-69542481D01*
X153051643Y-69542481D01*
G37*
G36*
X144415643Y-69542481D02*
X144561415Y-69602862D01*
X144692611Y-69690524D01*
X144804176Y-69802089D01*
X144891838Y-69933285D01*
X144952219Y-70079057D01*
X144983000Y-70233807D01*
X144983000Y-70391593D01*
X144952219Y-70546343D01*
X144891838Y-70692115D01*
X144804176Y-70823311D01*
X144692611Y-70934876D01*
X144561415Y-71022538D01*
X144415643Y-71082919D01*
X144260893Y-71113700D01*
X144103107Y-71113700D01*
X143948357Y-71082919D01*
X143802585Y-71022538D01*
X143671389Y-70934876D01*
X143559824Y-70823311D01*
X143472162Y-70692115D01*
X143411781Y-70546343D01*
X143381000Y-70391593D01*
X143381000Y-70233807D01*
X143411781Y-70079057D01*
X143472162Y-69933285D01*
X143559824Y-69802089D01*
X143671389Y-69690524D01*
X143802585Y-69602862D01*
X143948357Y-69542481D01*
X144103107Y-69511700D01*
X144260893Y-69511700D01*
X144415643Y-69542481D01*
X144415643Y-69542481D01*
G37*
M02*
