G04 #@! TF.GenerationSoftware,KiCad,Pcbnew,5.0.2+dfsg1-1~bpo9+1*
G04 #@! TF.CreationDate,2021-05-18T17:20:13+01:00*
G04 #@! TF.ProjectId,ds_phat_usb_c,64735f70-6861-4745-9f75-73625f632e6b,rev?*
G04 #@! TF.SameCoordinates,Original*
G04 #@! TF.FileFunction,Legend,Bot*
G04 #@! TF.FilePolarity,Positive*
%FSLAX46Y46*%
G04 Gerber Fmt 4.6, Leading zero omitted, Abs format (unit mm)*
G04 Created by KiCad (PCBNEW 5.0.2+dfsg1-1~bpo9+1) date Tue 18 May 2021 17:20:13 BST*
%MOMM*%
%LPD*%
G01*
G04 APERTURE LIST*
%ADD10C,0.250000*%
G04 APERTURE END LIST*
D10*
X150612857Y-72862380D02*
X150612857Y-73671904D01*
X150565238Y-73767142D01*
X150517619Y-73814761D01*
X150422380Y-73862380D01*
X150231904Y-73862380D01*
X150136666Y-73814761D01*
X150089047Y-73767142D01*
X150041428Y-73671904D01*
X150041428Y-72862380D01*
X149612857Y-73814761D02*
X149470000Y-73862380D01*
X149231904Y-73862380D01*
X149136666Y-73814761D01*
X149089047Y-73767142D01*
X149041428Y-73671904D01*
X149041428Y-73576666D01*
X149089047Y-73481428D01*
X149136666Y-73433809D01*
X149231904Y-73386190D01*
X149422380Y-73338571D01*
X149517619Y-73290952D01*
X149565238Y-73243333D01*
X149612857Y-73148095D01*
X149612857Y-73052857D01*
X149565238Y-72957619D01*
X149517619Y-72910000D01*
X149422380Y-72862380D01*
X149184285Y-72862380D01*
X149041428Y-72910000D01*
X148279523Y-73338571D02*
X148136666Y-73386190D01*
X148089047Y-73433809D01*
X148041428Y-73529047D01*
X148041428Y-73671904D01*
X148089047Y-73767142D01*
X148136666Y-73814761D01*
X148231904Y-73862380D01*
X148612857Y-73862380D01*
X148612857Y-72862380D01*
X148279523Y-72862380D01*
X148184285Y-72910000D01*
X148136666Y-72957619D01*
X148089047Y-73052857D01*
X148089047Y-73148095D01*
X148136666Y-73243333D01*
X148184285Y-73290952D01*
X148279523Y-73338571D01*
X148612857Y-73338571D01*
X147850952Y-73957619D02*
X147089047Y-73957619D01*
X146279523Y-73767142D02*
X146327142Y-73814761D01*
X146470000Y-73862380D01*
X146565238Y-73862380D01*
X146708095Y-73814761D01*
X146803333Y-73719523D01*
X146850952Y-73624285D01*
X146898571Y-73433809D01*
X146898571Y-73290952D01*
X146850952Y-73100476D01*
X146803333Y-73005238D01*
X146708095Y-72910000D01*
X146565238Y-72862380D01*
X146470000Y-72862380D01*
X146327142Y-72910000D01*
X146279523Y-72957619D01*
X151161904Y-72052380D02*
X151161904Y-71052380D01*
X150923809Y-71052380D01*
X150780952Y-71100000D01*
X150685714Y-71195238D01*
X150638095Y-71290476D01*
X150590476Y-71480952D01*
X150590476Y-71623809D01*
X150638095Y-71814285D01*
X150685714Y-71909523D01*
X150780952Y-72004761D01*
X150923809Y-72052380D01*
X151161904Y-72052380D01*
X150209523Y-72004761D02*
X150066666Y-72052380D01*
X149828571Y-72052380D01*
X149733333Y-72004761D01*
X149685714Y-71957142D01*
X149638095Y-71861904D01*
X149638095Y-71766666D01*
X149685714Y-71671428D01*
X149733333Y-71623809D01*
X149828571Y-71576190D01*
X150019047Y-71528571D01*
X150114285Y-71480952D01*
X150161904Y-71433333D01*
X150209523Y-71338095D01*
X150209523Y-71242857D01*
X150161904Y-71147619D01*
X150114285Y-71100000D01*
X150019047Y-71052380D01*
X149780952Y-71052380D01*
X149638095Y-71100000D01*
X149447619Y-72147619D02*
X148685714Y-72147619D01*
X148447619Y-71385714D02*
X148447619Y-72385714D01*
X148447619Y-71433333D02*
X148352380Y-71385714D01*
X148161904Y-71385714D01*
X148066666Y-71433333D01*
X148019047Y-71480952D01*
X147971428Y-71576190D01*
X147971428Y-71861904D01*
X148019047Y-71957142D01*
X148066666Y-72004761D01*
X148161904Y-72052380D01*
X148352380Y-72052380D01*
X148447619Y-72004761D01*
X147542857Y-72052380D02*
X147542857Y-71052380D01*
X147114285Y-72052380D02*
X147114285Y-71528571D01*
X147161904Y-71433333D01*
X147257142Y-71385714D01*
X147400000Y-71385714D01*
X147495238Y-71433333D01*
X147542857Y-71480952D01*
X146209523Y-72052380D02*
X146209523Y-71528571D01*
X146257142Y-71433333D01*
X146352380Y-71385714D01*
X146542857Y-71385714D01*
X146638095Y-71433333D01*
X146209523Y-72004761D02*
X146304761Y-72052380D01*
X146542857Y-72052380D01*
X146638095Y-72004761D01*
X146685714Y-71909523D01*
X146685714Y-71814285D01*
X146638095Y-71719047D01*
X146542857Y-71671428D01*
X146304761Y-71671428D01*
X146209523Y-71623809D01*
X145876190Y-71385714D02*
X145495238Y-71385714D01*
X145733333Y-71052380D02*
X145733333Y-71909523D01*
X145685714Y-72004761D01*
X145590476Y-72052380D01*
X145495238Y-72052380D01*
X149042857Y-70058571D02*
X149376190Y-70058571D01*
X149376190Y-70582380D02*
X149376190Y-69582380D01*
X148900000Y-69582380D01*
X148042857Y-70582380D02*
X148519047Y-70582380D01*
X148519047Y-69582380D01*
X147852380Y-69582380D02*
X147280952Y-69582380D01*
X147566666Y-70582380D02*
X147566666Y-69582380D01*
M02*
