G04 #@! TF.GenerationSoftware,KiCad,Pcbnew,5.0.2+dfsg1-1~bpo9+1*
G04 #@! TF.CreationDate,2021-05-18T17:20:13+01:00*
G04 #@! TF.ProjectId,ds_phat_usb_c,64735f70-6861-4745-9f75-73625f632e6b,rev?*
G04 #@! TF.SameCoordinates,Original*
G04 #@! TF.FileFunction,Copper,L1,Top*
G04 #@! TF.FilePolarity,Positive*
%FSLAX46Y46*%
G04 Gerber Fmt 4.6, Leading zero omitted, Abs format (unit mm)*
G04 Created by KiCad (PCBNEW 5.0.2+dfsg1-1~bpo9+1) date Tue 18 May 2021 17:20:13 BST*
%MOMM*%
%LPD*%
G01*
G04 APERTURE LIST*
G04 #@! TA.AperFunction,Conductor*
%ADD10C,0.100000*%
G04 #@! TD*
G04 #@! TA.AperFunction,SMDPad,CuDef*
%ADD11C,0.950000*%
G04 #@! TD*
G04 #@! TA.AperFunction,SMDPad,CuDef*
%ADD12R,0.520000X1.000000*%
G04 #@! TD*
G04 #@! TA.AperFunction,SMDPad,CuDef*
%ADD13R,0.600000X1.000000*%
G04 #@! TD*
G04 #@! TA.AperFunction,ComponentPad*
%ADD14C,1.500000*%
G04 #@! TD*
G04 #@! TA.AperFunction,ComponentPad*
%ADD15O,1.700000X1.200000*%
G04 #@! TD*
G04 #@! TA.AperFunction,ComponentPad*
%ADD16O,1.000000X1.500000*%
G04 #@! TD*
G04 #@! TA.AperFunction,Conductor*
%ADD17C,0.250000*%
G04 #@! TD*
G04 APERTURE END LIST*
D10*
G04 #@! TO.N,Net-(R1-Pad1)*
G04 #@! TO.C,R1*
G36*
X148960779Y-75636144D02*
X148983834Y-75639563D01*
X149006443Y-75645227D01*
X149028387Y-75653079D01*
X149049457Y-75663044D01*
X149069448Y-75675026D01*
X149088168Y-75688910D01*
X149105438Y-75704562D01*
X149121090Y-75721832D01*
X149134974Y-75740552D01*
X149146956Y-75760543D01*
X149156921Y-75781613D01*
X149164773Y-75803557D01*
X149170437Y-75826166D01*
X149173856Y-75849221D01*
X149175000Y-75872500D01*
X149175000Y-76347500D01*
X149173856Y-76370779D01*
X149170437Y-76393834D01*
X149164773Y-76416443D01*
X149156921Y-76438387D01*
X149146956Y-76459457D01*
X149134974Y-76479448D01*
X149121090Y-76498168D01*
X149105438Y-76515438D01*
X149088168Y-76531090D01*
X149069448Y-76544974D01*
X149049457Y-76556956D01*
X149028387Y-76566921D01*
X149006443Y-76574773D01*
X148983834Y-76580437D01*
X148960779Y-76583856D01*
X148937500Y-76585000D01*
X148362500Y-76585000D01*
X148339221Y-76583856D01*
X148316166Y-76580437D01*
X148293557Y-76574773D01*
X148271613Y-76566921D01*
X148250543Y-76556956D01*
X148230552Y-76544974D01*
X148211832Y-76531090D01*
X148194562Y-76515438D01*
X148178910Y-76498168D01*
X148165026Y-76479448D01*
X148153044Y-76459457D01*
X148143079Y-76438387D01*
X148135227Y-76416443D01*
X148129563Y-76393834D01*
X148126144Y-76370779D01*
X148125000Y-76347500D01*
X148125000Y-75872500D01*
X148126144Y-75849221D01*
X148129563Y-75826166D01*
X148135227Y-75803557D01*
X148143079Y-75781613D01*
X148153044Y-75760543D01*
X148165026Y-75740552D01*
X148178910Y-75721832D01*
X148194562Y-75704562D01*
X148211832Y-75688910D01*
X148230552Y-75675026D01*
X148250543Y-75663044D01*
X148271613Y-75653079D01*
X148293557Y-75645227D01*
X148316166Y-75639563D01*
X148339221Y-75636144D01*
X148362500Y-75635000D01*
X148937500Y-75635000D01*
X148960779Y-75636144D01*
X148960779Y-75636144D01*
G37*
D11*
G04 #@! TD*
G04 #@! TO.P,R1,1*
G04 #@! TO.N,Net-(R1-Pad1)*
X148650000Y-76110000D03*
D10*
G04 #@! TO.N,Net-(R1-Pad2)*
G04 #@! TO.C,R1*
G36*
X147210779Y-75636144D02*
X147233834Y-75639563D01*
X147256443Y-75645227D01*
X147278387Y-75653079D01*
X147299457Y-75663044D01*
X147319448Y-75675026D01*
X147338168Y-75688910D01*
X147355438Y-75704562D01*
X147371090Y-75721832D01*
X147384974Y-75740552D01*
X147396956Y-75760543D01*
X147406921Y-75781613D01*
X147414773Y-75803557D01*
X147420437Y-75826166D01*
X147423856Y-75849221D01*
X147425000Y-75872500D01*
X147425000Y-76347500D01*
X147423856Y-76370779D01*
X147420437Y-76393834D01*
X147414773Y-76416443D01*
X147406921Y-76438387D01*
X147396956Y-76459457D01*
X147384974Y-76479448D01*
X147371090Y-76498168D01*
X147355438Y-76515438D01*
X147338168Y-76531090D01*
X147319448Y-76544974D01*
X147299457Y-76556956D01*
X147278387Y-76566921D01*
X147256443Y-76574773D01*
X147233834Y-76580437D01*
X147210779Y-76583856D01*
X147187500Y-76585000D01*
X146612500Y-76585000D01*
X146589221Y-76583856D01*
X146566166Y-76580437D01*
X146543557Y-76574773D01*
X146521613Y-76566921D01*
X146500543Y-76556956D01*
X146480552Y-76544974D01*
X146461832Y-76531090D01*
X146444562Y-76515438D01*
X146428910Y-76498168D01*
X146415026Y-76479448D01*
X146403044Y-76459457D01*
X146393079Y-76438387D01*
X146385227Y-76416443D01*
X146379563Y-76393834D01*
X146376144Y-76370779D01*
X146375000Y-76347500D01*
X146375000Y-75872500D01*
X146376144Y-75849221D01*
X146379563Y-75826166D01*
X146385227Y-75803557D01*
X146393079Y-75781613D01*
X146403044Y-75760543D01*
X146415026Y-75740552D01*
X146428910Y-75721832D01*
X146444562Y-75704562D01*
X146461832Y-75688910D01*
X146480552Y-75675026D01*
X146500543Y-75663044D01*
X146521613Y-75653079D01*
X146543557Y-75645227D01*
X146566166Y-75639563D01*
X146589221Y-75636144D01*
X146612500Y-75635000D01*
X147187500Y-75635000D01*
X147210779Y-75636144D01*
X147210779Y-75636144D01*
G37*
D11*
G04 #@! TD*
G04 #@! TO.P,R1,2*
G04 #@! TO.N,Net-(R1-Pad2)*
X146900000Y-76110000D03*
D12*
G04 #@! TO.P,U1,3*
G04 #@! TO.N,Net-(R1-Pad1)*
X147992000Y-74110000D03*
G04 #@! TO.P,U1,4*
X149008000Y-74110000D03*
G04 #@! TO.P,U1,2*
G04 #@! TO.N,Net-(U1-Pad2)*
X150024000Y-74110000D03*
X146976000Y-74110000D03*
D13*
G04 #@! TO.P,U1,1*
G04 #@! TO.N,Net-(R1-Pad2)*
X151255900Y-74110000D03*
X145744100Y-74110000D03*
D14*
X152818000Y-74110000D03*
X144182000Y-74110000D03*
X144182000Y-70312700D03*
X152818000Y-70312700D03*
G04 #@! TD*
D15*
G04 #@! TO.P,U3,1*
G04 #@! TO.N,Net-(U3-Pad1)*
X143486200Y-72190000D03*
G04 #@! TO.P,U3,2*
G04 #@! TO.N,Net-(U3-Pad2)*
X153493800Y-72190000D03*
G04 #@! TD*
D16*
G04 #@! TO.P,U2,1*
G04 #@! TO.N,Net-(R1-Pad2)*
X144697600Y-76194920D03*
G04 #@! TO.P,U2,2*
G04 #@! TO.N,Net-(U1-Pad2)*
X151200000Y-76200000D03*
G04 #@! TD*
D17*
G04 #@! TO.N,Net-(U1-Pad2)*
X146976000Y-73360000D02*
X147395990Y-72940010D01*
X146976000Y-74110000D02*
X146976000Y-73360000D01*
X150024000Y-73870000D02*
X150024000Y-74110000D01*
X149094010Y-72940010D02*
X150024000Y-73870000D01*
X147395990Y-72940010D02*
X149094010Y-72940010D01*
X150450000Y-76200000D02*
X151200000Y-76200000D01*
X150024000Y-75774000D02*
X150450000Y-76200000D01*
X150024000Y-74110000D02*
X150024000Y-75774000D01*
G04 #@! TO.N,Net-(R1-Pad1)*
X148650000Y-74468000D02*
X149008000Y-74110000D01*
X148650000Y-76110000D02*
X148650000Y-74468000D01*
X147992000Y-74110000D02*
X149008000Y-74110000D01*
G04 #@! TO.N,Net-(R1-Pad2)*
X152818000Y-74110000D02*
X151255900Y-74110000D01*
X152818000Y-70312700D02*
X152068001Y-71062699D01*
X152068001Y-71062699D02*
X152068001Y-73360001D01*
X152068001Y-73360001D02*
X152818000Y-74110000D01*
X152818000Y-70312700D02*
X144182000Y-70312700D01*
X144182000Y-74110000D02*
X144931999Y-73360001D01*
X144931999Y-73360001D02*
X144931999Y-71062699D01*
X144931999Y-71062699D02*
X144182000Y-70312700D01*
X146310000Y-72490000D02*
X145744100Y-73055900D01*
X145744100Y-73055900D02*
X145744100Y-74110000D01*
X151255900Y-73360000D02*
X150385900Y-72490000D01*
X150385900Y-72490000D02*
X146310000Y-72490000D01*
X151255900Y-74110000D02*
X151255900Y-73360000D01*
X145744100Y-74954100D02*
X146900000Y-76110000D01*
X145744100Y-74110000D02*
X145744100Y-74954100D01*
X145688420Y-74954100D02*
X145744100Y-74954100D01*
X144697600Y-75944920D02*
X145688420Y-74954100D01*
X144697600Y-76194920D02*
X144697600Y-75944920D01*
G04 #@! TD*
M02*
